<svg height="512" viewBox="0 0 512 512" width="512" xmlns="http://www.w3.org/2000/svg"><path d="m112 208 11.061 9.481a160 160 0 0 0 104.127 38.519h10.538a160 160 0 0 0 113.137-46.863l1.137-1.137-56-40h-128z" fill="#c94536"/><path d="m232 440a77.685 77.685 0 0 1 -77.085-87.32l15.236-145.015a62.161 62.161 0 0 1 61.82-55.665h.058a62.161 62.161 0 0 1 61.82 55.665l15.236 145.015a77.685 77.685 0 0 1 -77.085 87.32z" fill="#ebebeb"/><path d="m232 248a8 8 0 0 1 -8-8v-56a8 8 0 0 1 16 0v56a8 8 0 0 1 -8 8z" fill="#e4e4e2"/><path d="m200 232a8 8 0 0 1 -8-8v-40a8 8 0 0 1 16 0v40a8 8 0 0 1 -8 8z" fill="#e4e4e2"/><path d="m264 232a8 8 0 0 1 -8-8v-40a8 8 0 0 1 16 0v40a8 8 0 0 1 -8 8z" fill="#e4e4e2"/><path d="m352 208-37.548-10.013a320.009 320.009 0 0 0 -164.9 0l-37.552 10.013v-8a120 120 0 0 1 120-120 120 120 0 0 1 120 120z" fill="#f85542"/><g fill="#f8f8f8"><rect height="16" rx="8" width="16" x="176" y="120"/><rect height="16" rx="8" width="16" x="152" y="152"/><rect height="16" rx="8" width="16" x="224" y="104"/><rect height="16" rx="8" width="16" x="224" y="144"/><rect height="16" rx="8" width="16" x="272" y="120"/><rect height="16" rx="8" width="16" x="296" y="152"/></g><path d="m204.551 413.969a235.085 235.085 0 0 1 -4.551-45.969 8 8 0 0 0 -16 0 251.067 251.067 0 0 0 4.863 49.1c.79 3.951 1.824 7.843 2.968 11.7a76.969 76.969 0 0 0 19.993 8.447 117.412 117.412 0 0 1 -7.273-23.278z" fill="#e4e4e2"/><path d="m232 440a78.755 78.755 0 0 0 8-.437v-87.563a8 8 0 0 0 -16 0v87.563a78.755 78.755 0 0 0 8 .437z" fill="#e4e4e2"/><path d="m272 360a8 8 0 0 0 -8 8 235.085 235.085 0 0 1 -4.551 45.969 117.37 117.37 0 0 1 -7.273 23.283 76.988 76.988 0 0 0 19.994-8.446c1.143-3.86 2.177-7.753 2.967-11.7a251.067 251.067 0 0 0 4.863-49.106 8 8 0 0 0 -8-8z" fill="#e4e4e2"/><path d="m272 328 12.01 15.012a66.579 66.579 0 0 0 51.99 24.988 66.579 66.579 0 0 0 51.99-24.988l12.01-15.012-32-16h-64z" fill="#c94536"/><path d="m336 440a37.578 37.578 0 0 1 -37.5-39.922l5.5-104.078h64l5.5 104.078a37.578 37.578 0 0 1 -37.5 39.922z" fill="#e4e4e2"/><path d="m320 400a8 8 0 0 0 -8 8v23.108a37.168 37.168 0 0 0 16 8.028v-31.136a8 8 0 0 0 -8-8z" fill="#dbdbdb"/><path d="m352 400a8 8 0 0 0 -8 8v31.136a37.168 37.168 0 0 0 16-8.028v-23.108a8 8 0 0 0 -8-8z" fill="#dbdbdb"/><path d="m302.184 330.343a263.786 263.786 0 0 1 67.632 0l-1.816-34.343h-64z" fill="#d5d5d3"/><path d="m336 344a8 8 0 0 1 -8-8v-24a8 8 0 0 1 16 0v24a8 8 0 0 1 -8 8z" fill="#dbdbdb"/><path d="m344 328.423v-16.423a8 8 0 0 0 -16 0v16.423q8-.241 16 0z" fill="#cecece"/><path d="m400 328a263.879 263.879 0 0 0 -128 0 64 64 0 0 1 64-64 64 64 0 0 1 64 64z" fill="#f85542"/><rect fill="#f8f8f8" height="16" rx="8" width="16" x="312" y="288"/><rect fill="#f8f8f8" height="16" rx="8" width="16" x="344" y="288"/></svg>