<svg height="512pt" viewBox="-65 0 511 512" width="512pt" xmlns="http://www.w3.org/2000/svg"><path d="m251.519531 266.140625c-4.203125 0-7.609375 3.40625-7.609375 7.609375v110.003906h-145.101562c-4.203125 0-7.613282 3.40625-7.613282 7.609375s3.410157 7.613281 7.613282 7.613281h145.101562v105.414063c0 4.203125 3.40625 7.609375 7.609375 7.609375 4.207031 0 7.613281-3.40625 7.613281-7.609375v-230.640625c-.003906-4.203125-3.410156-7.609375-7.613281-7.609375zm0 0" fill="#00a854"/><path d="m114.753906 361.136719c21.046875 21.046875 51.1875 27.910156 70.242188 30.121093 9.855468 1.144532 18.1875-7.183593 17.042968-17.039062-2.214843-19.058594-9.078124-49.199219-30.121093-70.242188-21.046875-21.046874-51.1875-27.910156-70.246094-30.121093-9.851563-1.144531-18.183594 7.183593-17.039063 17.039062 2.214844 19.058594 9.078126 49.199219 30.121094 70.242188zm0 0" fill="#00b965"/><path d="m184.996094 391.261719c-6.652344-.773438-14.65625-2.117188-23.152344-4.429688 1.683594-2.785156 2.519531-6.136719 2.105469-9.695312-2.210938-19.058594-9.078125-49.199219-30.121094-70.242188-13.699219-13.699219-31.25-21.386719-47.089844-25.695312 2.976563-4.929688 8.636719-8.074219 14.933594-7.34375 19.058594 2.210937 49.199219 9.078125 70.242187 30.121093 21.046876 21.042969 27.910157 51.183594 30.125 70.242188 1.144532 9.855469-7.183593 18.183594-17.042968 17.042969zm0 0" fill="#00a855"/><path d="m286.140625 390.3125c-21.042969 21.042969-27.90625 51.183594-30.121094 70.242188-1.144531 9.855468 7.183594 18.183593 17.042969 17.039062 19.054688-2.210938 49.195312-9.074219 70.242188-30.121094 21.042968-21.042968 27.90625-51.183594 30.121093-70.242187 1.144531-9.855469-7.183593-18.183594-17.042969-17.039063-19.054687 2.210938-49.195312 9.074219-70.242187 30.121094zm0 0" fill="#00b965"/><path d="m256.019531 460.554688c.773438-6.652344 2.117188-14.660157 4.429688-23.15625 2.785156 1.683593 6.136719 2.519531 9.695312 2.109374 19.058594-2.214843 49.199219-9.078124 70.242188-30.125 13.699219-13.695312 21.386719-31.246093 25.695312-47.085937 4.929688 2.976563 8.074219 8.636719 7.34375 14.933594-2.210937 19.058593-9.078125 49.199219-30.121093 70.242187-21.046876 21.046875-51.183594 27.910156-70.242188 30.121094-9.859375 1.144531-18.1875-7.183594-17.042969-17.039062zm0 0" fill="#00a855"/><path d="m333.503906 147.929688h-37.5625v-129.421876c0-10.222656 8.285156-18.507812 18.507813-18.507812h.546875c10.21875 0 18.507812 8.285156 18.507812 18.507812zm0 0" fill="#b9acac"/><path d="m206.644531 147.929688h-37.558593v-129.421876c0-10.222656 8.285156-18.507812 18.503906-18.507812h.546875c10.222656 0 18.507812 8.285156 18.507812 18.507812zm0 0" fill="#b9acac"/><path d="m314.722656 0c-2.675781 0-5.210937.566406-7.515625 1.574219 6.628907 2.898437 11.269531 9.507812 11.269531 17.207031v129.148438h15.027344v-129.148438c0-10.375-8.410156-18.78125-18.78125-18.78125zm0 0" fill="#9e9797"/><path d="m187.863281 0c-2.671875 0-5.210937.566406-7.511719 1.574219 6.628907 2.898437 11.265626 9.507812 11.265626 17.207031v129.148438h15.027343v-129.148438c0-10.375-8.40625-18.78125-18.78125-18.78125zm0 0" fill="#9e9797"/><path d="m251.292969 292.941406c-59.625 0-107.957031-48.332031-107.957031-107.957031v-42.414063c0-6.550781 5.308593-11.859374 11.859374-11.859374h192.199219c6.550781 0 11.859375 5.308593 11.859375 11.859374v42.414063c-.003906 59.621094-48.335937 107.957031-107.960937 107.957031zm0 0" fill="#92dfb7"/><path d="m347.394531 130.710938h-32.789062v33.257812c0 59.621094-48.335938 107.957031-107.960938 107.957031-7.683593 0-15.175781-.808593-22.40625-2.335937 18.417969 14.617187 41.714844 23.351562 67.054688 23.351562 59.625 0 107.957031-48.335937 107.957031-107.957031v-42.417969c0-6.546875-5.308594-11.855468-11.855469-11.855468zm0 0" fill="#6fd6a2"/><path d="m371.625 168.847656h-240.660156c-5.484375 0-9.929688-4.445312-9.929688-9.925781v-29.167969c0-5.484375 4.445313-9.929687 9.929688-9.929687h240.660156c5.480469 0 9.925781 4.445312 9.925781 9.929687v29.167969c0 5.480469-4.445312 9.925781-9.925781 9.925781zm0 0" fill="#92dfb7"/><path d="m371.648438 119.824219h-20.460938v25.496093c0 5.46875-4.433594 9.902344-9.902344 9.902344h-220.25v3.722656c0 5.46875 4.433594 9.902344 9.902344 9.902344h240.710938c5.46875 0 9.902343-4.433594 9.902343-9.902344v-29.21875c0-5.46875-4.433593-9.902343-9.902343-9.902343zm0 0" fill="#6fd6a2"/><path d="m52.804688 363.839844c20.269531 0 38.089843 11.207031 48.335937 19.320312 5.296875 4.195313 5.296875 12.21875 0 16.410156-10.246094 8.113282-28.066406 19.324219-48.335937 19.324219-20.269532 0-38.089844-11.210937-48.332032-19.324219-5.296875-4.191406-5.296875-12.214843 0-16.410156 10.242188-8.113281 28.0625-19.320312 48.332032-19.320312zm0 0" fill="#00b965"/><path d="m101.140625 383.160156c-3.769531-2.984375-8.5625-6.386718-14.125-9.496094.046875 3.105469-1.269531 6.230469-3.964844 8.363282-10.242187 8.113281-28.0625 19.320312-48.332031 19.320312-12.816406 0-24.648438-4.480468-34.210938-9.828125.042969 3.003907 1.359376 5.988281 3.964844 8.050781 10.242188 8.113282 28.0625 19.324219 48.332032 19.324219 20.269531 0 38.089843-11.210937 48.332031-19.324219 5.300781-4.195312 5.300781-12.214843.003906-16.410156zm0 0" fill="#00a855"/></svg>